<?xml version="1.0" encoding="UTF-8" standalone="no"?>
<!DOCTYPE svg PUBLIC "-//W3C//DTD SVG 1.1//EN" "http://www.w3.org/Graphics/SVG/1.1/DTD/svg11.dtd">
<svg width="100%" height="100%" viewBox="0 0 1530 2902" version="1.1" xmlns="http://www.w3.org/2000/svg" xmlns:xlink="http://www.w3.org/1999/xlink" xml:space="preserve" xmlns:serif="http://www.serif.com/" style="fill-rule:evenodd;clip-rule:evenodd;stroke-linecap:round;stroke-linejoin:round;stroke-miterlimit:1.5;">
    <g transform="matrix(1.5671,0,0,1.5671,-1585.7,-889.455)">
        <g transform="matrix(1,0,0,1,70.2519,570.787)">
            <circle cx="1429.75" cy="666.182" r="370.64" style="fill:rgb(248,243,231);"/>
        </g>
        <g transform="matrix(1,0,0,1,117.49,532.027)">
            <circle cx="1382.51" cy="1398.98" r="488.13" style="fill:rgb(248,243,231);"/>
        </g>
    </g>
    <g transform="matrix(1.5671,0,0,1.5671,-1585.7,-866.423)">
        <g transform="matrix(1,0,0,1,-76.4341,-148.884)">
            <circle cx="1478.45" cy="1257.48" r="48.992" style="fill:rgb(42,42,42);"/>
        </g>
        <g transform="matrix(1,0,0,1,119.535,-148.884)">
            <circle cx="1478.45" cy="1257.48" r="48.992" style="fill:rgb(42,42,42);"/>
        </g>
    </g>
    <g transform="matrix(1.5671,0,0,1.5671,-1578.46,-137.453)">
        <path d="M1256.87,832.14C1252.78,815.787 1262.74,799.19 1279.09,795.102C1295.44,791.013 1312.04,800.971 1316.13,817.325C1320.22,833.678 1310.26,850.275 1293.91,854.363C1277.55,858.452 1260.96,848.495 1256.87,832.141L1256.87,832.14ZM1321.6,902.815C1307.54,893.523 1303.66,874.56 1312.96,860.496C1322.25,846.431 1341.21,842.557 1355.28,851.849C1369.34,861.141 1373.21,880.104 1363.92,894.168C1354.63,908.233 1335.67,912.108 1321.6,902.815ZM1396.39,938.744C1380.36,933.539 1371.56,916.296 1376.77,900.262C1381.98,884.229 1399.22,875.439 1415.25,880.644C1431.29,885.85 1440.08,903.093 1434.87,919.126C1429.66,935.159 1412.42,943.95 1396.39,938.744ZM1478.28,953.335C1461.43,952.721 1448.26,938.545 1448.87,921.7C1449.49,904.854 1463.66,891.676 1480.51,892.29C1497.35,892.904 1510.53,907.079 1509.92,923.925C1509.3,940.771 1495.13,953.949 1478.28,953.335L1478.28,953.335ZM1561.04,944.696C1544.67,948.734 1528.1,938.725 1524.07,922.359C1520.03,905.993 1530.04,889.427 1546.4,885.389C1562.77,881.351 1579.34,891.36 1583.37,907.726C1587.41,924.092 1577.4,940.658 1561.04,944.696ZM1637.76,915.163C1622.85,923.03 1604.36,917.314 1596.49,902.405C1588.62,887.497 1594.34,869.006 1609.25,861.139C1624.16,853.271 1642.65,858.988 1650.52,873.897C1658.38,888.805 1652.67,907.296 1637.76,915.163ZM1705.02,870.59C1691.88,881.147 1672.64,879.049 1662.08,865.908C1651.53,852.766 1653.62,833.525 1666.77,822.968C1679.91,812.411 1699.15,814.509 1709.7,827.651C1720.26,840.792 1718.16,860.033 1705.02,870.59Z" style="fill:rgb(42,42,42);"/>
    </g>
    <g transform="matrix(1.5671,0,0,1.25771,-1541.16,1143.78)">
        <path d="M1450.84,585.186C1438.58,554.553 1448.59,517.285 1473.18,502.015C1497.76,486.745 1527.67,499.218 1539.93,529.852C1552.18,560.485 1542.17,597.753 1517.59,613.023C1493,628.293 1463.09,615.82 1450.84,585.186ZM1485.01,717.014C1480.53,683.243 1498.9,651.299 1526.01,645.725C1553.11,640.15 1578.75,663.043 1583.22,696.814L1583.22,696.816C1587.7,730.588 1569.32,762.532 1542.22,768.106C1515.12,773.68 1489.48,750.787 1485.01,717.016L1485.01,717.014ZM1491.19,862.312C1491.96,828.097 1514.88,801.094 1542.34,802.05C1569.8,803.005 1591.47,831.559 1590.7,865.774L1590.7,865.775C1589.93,899.99 1567.02,926.993 1539.56,926.038C1512.1,925.083 1490.42,896.529 1491.19,862.314L1491.19,862.312ZM1483.09,1015.85C1485.5,981.75 1509.67,956.504 1537.04,959.505C1564.4,962.507 1584.66,992.626 1582.26,1026.72C1579.85,1060.82 1555.67,1086.07 1528.31,1083.06C1500.94,1080.06 1480.68,1049.94 1483.09,1015.85Z" style="fill:rgb(42,42,42);"/>
    </g>
    <g transform="matrix(4.05111e-17,0.661596,-2.47501,1.51551e-16,2964.44,281.838)">
        <path d="M1139.43,753.876C1140.78,751.181 1149.38,749.169 1159.55,749.169C1169.72,749.169 1178.33,751.181 1179.67,753.876C1205.34,805.203 1247.8,890.137 1259.51,913.559C1260.29,915.109 1258.52,916.674 1254.67,917.851C1250.81,919.028 1245.25,919.703 1239.39,919.703C1199.74,919.703 1119.37,919.703 1079.71,919.703C1073.86,919.703 1068.29,919.028 1064.44,917.851C1060.58,916.674 1058.82,915.109 1059.59,913.559C1071.3,890.137 1113.77,805.203 1139.43,753.876Z" style="fill:rgb(207,113,0);"/>
    </g>
    <g transform="matrix(1.5671,0,0,1.5671,-1585.7,-889.455)">
        <g transform="matrix(1,0,0,1,11.6416,338.519)">
            <path d="M1309.49,585.8C1331.13,491.729 1303.7,373.769 1287.69,285.026C1382.45,244.404 1535.98,214.326 1666.7,283.909C1647.58,373.512 1626.56,458.699 1657.08,590.638L1309.49,585.8Z" style="fill:rgb(43,43,43);stroke:rgb(42,42,42);stroke-width:26.56px;"/>
        </g>
        <g transform="matrix(1,0,0,1,11.6416,338.519)">
            <ellipse cx="1478.2" cy="554.669" rx="280.31" ry="85.581" style="fill:rgb(43,43,43);stroke:rgb(42,42,42);stroke-width:26.56px;"/>
        </g>
    </g>
</svg>
