<?xml version="1.0" encoding="UTF-8" standalone="no"?>
<!DOCTYPE svg PUBLIC "-//W3C//DTD SVG 1.1//EN" "http://www.w3.org/Graphics/SVG/1.1/DTD/svg11.dtd">
<svg width="100%" height="100%" viewBox="0 0 1604 1727" version="1.1" xmlns="http://www.w3.org/2000/svg" xmlns:xlink="http://www.w3.org/1999/xlink" xml:space="preserve" xmlns:serif="http://www.serif.com/" style="fill-rule:evenodd;clip-rule:evenodd;stroke-linejoin:round;stroke-miterlimit:2;">
    <g transform="matrix(-0.683815,0.45584,-0.507937,-0.613679,2589.16,1100.09)">
        <path d="M2375.85,1614.57L2445.46,1754.96C2458.29,1780.85 2447.15,1814.86 2420.59,1830.86C2394.03,1846.86 2362.04,1838.83 2349.2,1812.94L2246.52,1605.87L2194.51,1602.37L2260.8,2011.47C2263.38,2027.37 2258.78,2044.36 2248.25,2057.81C2237.72,2071.25 2222.38,2079.74 2206.42,2080.93L1789.93,2112.24L1817.01,2184.12L2044.9,2222.6C2073.4,2227.41 2090.32,2255.71 2082.67,2285.76C2075.03,2315.82 2045.69,2336.31 2017.19,2331.5L1862.7,2305.41L1899.39,2402.8C1909.66,2430.08 1895.55,2463.18 1867.9,2476.68C1840.25,2490.17 1809.45,2478.97 1799.18,2451.69L1762.49,2354.28L1672.55,2499.63C1655.97,2526.43 1622.69,2536.48 1598.3,2522.06C1573.9,2507.64 1567.56,2474.18 1584.14,2447.37L1716.8,2232.99L1687.09,2154.11L1383.28,2482.12C1371.41,2494.94 1355.03,2502.02 1338.83,2501.33C1322.63,2500.65 1308.4,2492.28 1300.21,2478.61L1093.41,2133.4L1052.62,2188.3L1113.61,2415.7C1121.23,2444.13 1104.28,2476.03 1075.79,2486.89C1047.29,2497.75 1017.96,2483.48 1010.34,2455.05L968.993,2300.89L901.839,2391.3C883.029,2416.62 849.307,2423.47 826.581,2406.59C803.856,2389.71 800.676,2355.45 819.487,2330.12L886.646,2239.71L727.099,2244.66C697.677,2245.58 675.547,2221.62 677.711,2191.2C679.875,2160.78 705.519,2135.34 734.94,2134.43L970.279,2127.12L1011.05,2072.23L620.832,1973.96C605.865,1970.19 593.99,1959.55 588.416,1944.92C582.841,1930.28 584.141,1913.16 591.965,1898.18L795.621,1508.22L735.618,1504.18L568.707,1693.1C547.838,1716.72 513.966,1720.31 493.114,1701.12C472.261,1681.93 472.274,1647.17 493.143,1623.55L606.297,1495.48L502.456,1488.49C473.37,1486.53 453.756,1460.28 458.683,1429.91C463.61,1399.54 491.224,1376.47 520.311,1378.43L624.16,1385.42L554.549,1245.03C541.712,1219.14 552.855,1185.13 579.417,1169.13C605.979,1153.13 637.966,1161.16 650.803,1187.05L753.482,1394.12L816.907,1398.39L739.454,989.933C736.396,973.805 740.833,956.346 751.5,942.53C762.168,928.714 777.898,920.056 794.208,919.023C794.208,919.023 1081.79,900.799 1211.88,892.555L1183,815.875L955.102,777.394C926.609,772.582 909.684,744.278 917.331,714.226C924.977,684.174 954.318,663.682 982.811,668.493L1137.31,694.581L1100.62,597.186C1090.34,569.905 1104.45,536.805 1132.1,523.314C1159.76,509.824 1190.55,521.021 1200.83,548.301L1237.52,645.705L1327.45,500.364C1344.04,473.562 1377.31,463.509 1401.71,477.929C1426.11,492.348 1432.45,525.814 1415.87,552.616L1283.21,767L1313.2,846.636L1616.66,517.958C1628.78,504.83 1645.6,497.708 1662.12,498.714C1678.63,499.719 1692.93,508.737 1700.76,523.08L1895.98,880.892L1947.38,811.693L1886.4,584.294C1878.77,555.862 1895.72,523.963 1924.22,513.104C1952.72,502.245 1982.05,516.511 1989.67,544.943L2031.01,699.103L2098.17,608.697C2116.98,583.374 2150.7,576.52 2173.42,593.4C2196.15,610.281 2199.33,644.546 2180.52,669.869L2113.36,760.283L2272.91,755.329C2302.33,754.416 2324.46,778.372 2322.29,808.793C2320.13,839.214 2294.49,864.653 2265.07,865.567L2029.73,872.873L1978.33,942.062L2377.28,1025.6C2393.17,1028.93 2405.88,1039.89 2411.66,1055.26C2417.45,1070.63 2415.66,1088.66 2406.82,1104.05L2184.82,1490.46L2264.39,1495.81L2431.3,1306.89C2452.17,1283.27 2486.04,1279.68 2506.89,1298.87C2527.74,1318.06 2527.73,1352.82 2506.86,1376.44L2393.71,1504.52L2497.55,1511.5C2526.64,1513.46 2546.25,1539.71 2541.32,1570.08C2536.39,1600.45 2508.78,1623.52 2479.69,1621.56L2375.85,1614.57ZM1749.73,2005.51L2144.83,1975.81L2083.1,1594.87L2015.04,1590.29L2059,1861.57C2061.57,1877.46 2056.97,1894.46 2046.44,1907.9C2035.92,1921.35 2020.57,1929.83 2004.61,1931.03C2004.61,1931.03 1828.43,1944.27 1729.47,1951.71L1749.73,2005.51ZM1166.12,2035.51L1358.88,2357.27L1646.6,2046.63L1627.52,1995.97L1427.03,2212.42C1415.16,2225.24 1398.78,2232.32 1382.58,2231.64C1366.38,2230.95 1352.15,2222.58 1343.97,2208.91L1207.06,1980.39L1166.12,2035.51ZM907.763,1515.76L716.566,1881.87L1083.76,1974.34L1124.71,1919.22L866.388,1854.16C851.421,1850.4 839.547,1839.76 833.972,1825.12C828.397,1810.49 829.697,1793.37 837.521,1778.39L972.402,1520.12L907.763,1515.76ZM1252.27,999.794L857.106,1024.84L929.376,1405.96L992.528,1410.21L941.259,1139.83C938.2,1123.7 942.637,1106.25 953.305,1092.43C963.973,1078.61 979.702,1069.96 996.012,1068.92L1271.73,1051.45L1252.27,999.794ZM1822.19,980.224L1639.26,644.925L1353.72,954.196L1372.68,1004.52L1572.9,787.652C1585.03,774.523 1601.85,767.401 1618.37,768.407C1634.88,769.413 1649.18,778.43 1657.01,792.774L1785.92,1029.06L1822.19,980.224ZM2071.99,1482.86C2073.27,1479.11 2074.93,1475.44 2076.95,1471.93L2279.23,1119.85L1904.55,1041.39L1868.28,1090.23L2131.72,1145.39C2147.61,1148.72 2160.32,1159.68 2166.11,1175.06C2171.89,1190.43 2170.1,1208.46 2161.26,1223.84L2014.66,1479L2071.99,1482.86ZM1689.27,1844.98L1943.02,1825.91L1903.62,1582.79L1818.65,1577.07L1838.17,1697.54C1840.75,1713.44 1836.14,1730.43 1825.62,1743.88C1815.09,1757.32 1799.75,1765.81 1783.78,1767.01L1663.3,1776.06L1689.27,1844.98ZM1279.77,1882.5L1402.63,2087.58L1587.03,1888.49L1562.33,1822.92L1474.91,1917.31C1463.03,1930.13 1446.65,1937.21 1430.46,1936.53C1414.26,1935.85 1400.03,1927.47 1391.84,1913.8L1331.43,1812.96L1279.77,1882.5ZM1084.54,1527.66C1044.96,1603.46 962.123,1762.08 962.123,1762.08L1197.42,1821.33L1249.07,1751.79L1135.09,1723.09C1120.12,1719.32 1108.25,1708.68 1102.67,1694.04C1097.1,1679.41 1098.4,1662.29 1106.22,1647.31L1165.85,1533.13L1084.54,1527.66ZM1312.13,1158.69L1058.91,1174.74L1105,1417.78L1184.7,1423.14L1162.08,1303.86C1159.02,1287.74 1163.46,1270.28 1174.13,1256.46C1184.8,1242.65 1200.53,1233.99 1216.84,1232.95L1337.23,1225.33L1312.13,1158.69ZM1712.14,1128.39L1595.5,914.618L1413.19,1112.08L1437.76,1177.29L1525.03,1082.77C1537.15,1069.64 1553.97,1062.52 1570.49,1063.52C1587,1064.53 1601.3,1073.54 1609.13,1087.89C1609.13,1087.89 1641.13,1146.54 1665.49,1191.19L1712.14,1128.39ZM1900.56,1471.33L2033.67,1239.64L1794.49,1189.56L1747.84,1252.36L1863.02,1276.48C1878.91,1279.81 1891.62,1290.77 1897.4,1306.14C1903.19,1321.51 1901.4,1339.54 1892.56,1354.93L1828.48,1466.47L1900.56,1471.33ZM1623.1,1669.33L1722.2,1661.88L1707.24,1569.57L1582.36,1561.17L1623.1,1669.33ZM1404.14,1715.07L1450.51,1792.47L1521.85,1715.44L1482.15,1610.05L1404.14,1715.07ZM1277.99,1540.68L1230.82,1631L1321.78,1653.9L1399.8,1548.88L1277.99,1540.68ZM1377.62,1332.56C1337.57,1335.1 1279.73,1338.77 1279.73,1338.77L1297.17,1430.71L1417.65,1438.82L1377.62,1332.56ZM1591.71,1290.52C1573.71,1257.54 1547.63,1209.73 1547.63,1209.73L1478.27,1284.85L1517.86,1389.94L1591.71,1290.52ZM1714.37,1458.79C1730.92,1429.99 1764.97,1370.73 1764.97,1370.73L1674.06,1351.69L1600.21,1451.11L1714.37,1458.79Z" style="fill:rgb(80,186,195);"/>
    </g>
</svg>
